<?xml version="1.0" encoding="utf-8"?>
<!-- Generator: Adobe Illustrator 27.9.4, SVG Export Plug-In . SVG Version: 9.03 Build 54784)  -->
<svg version="1.1" id="Layer_1" class="svg-stroke-animate" xmlns="http://www.w3.org/2000/svg" xmlns:xlink="http://www.w3.org/1999/xlink" x="0px" y="0px"
	 viewBox="0 0 300 300" style="enable-background:new 0 0 300 300;" xml:space="preserve">
<style type="text/css">
	.st0{fill: none;
        stroke: #fad000;
        stroke-miterlimit: 10;
        stroke-width: 2px;}
        
        .svg-stroke-animate {
        opacity: 1;
        margin-top: 5%;
        width: 30%;
        stroke-dasharray: 800;
        stroke-dashoffset: 0;
        animation: 
          dash 12s ease-in-out;
      }
      @keyframes dash {
        0% {
          opacity: 0;
          stroke-dashoffset: 0;
          stroke-dasharray:   0;
        }
        15%{
          opacity: 1;
        }
        30%{
          stroke-dashoffset: 10;
        }
        50% {
          stroke-dashoffset: 0;
          stroke-dasharray: 800;
        }
        50.5% {opacity: 1;}
        51% {opacity: 1;}
        51.5% {opacity: 0;}
        52% {opacity: 1;}
        52.5% {opacity: 0;}
        53% {opacity: 1;}
        100% {opacity: 1;}
      }
</style>
<g>
	<path class="st0" d="M259.3,114.3c-3.1-11.1-10.3-20.5-20.4-26.3-7-13.9-21-23.4-36.8-24.4-.9,0-1.8,0-2.7,0-3.4,0-6.7.4-10,1.2-5.7-4.1-12.5-6.5-19.7-6.9-.8,0-1.6,0-2.4,0h0c-7.6,0-14.9,2.3-21.1,6.4-3.6-1.3-7.3-2.2-11.1-2.4-.8,0-1.6,0-2.4,0-11.6,0-22.1,5.2-29.1,13.5-15.5-11.7-34.3-8.6-34.3-8.6-5.4-.2-10.5,2.7-13,7.6l-1.7,3.2-20.3,14.5c-5.7,4.1-9.7,10.2-10.7,17.2s0,14.6,7.3,20.9c4.7,4.1,10.9,6.1,17.1,5.9,3.3,0,7.5-.3,12.1-.7,0,.6-.1,1.2-.2,1.7-1.2,20.3,10.5,38.7,28.2,46.7,1.6,19.2,15.7,35.1,34.4,39.3v11.5l-2.2,3.4c-2.2,1.9-.9,5.5,2,5.5h8.2c4.4,0,7.9-3.6,7.9-7.9v-11.8c3.8-.5,7.5-1.5,11-3,5.9,3.4,12.5,5.4,19.3,5.8.9,0,1.8,0,2.7,0,11.8,0,23-4.8,31.2-13,.9.1,1.9.2,2.9.3,1,0,1.9,0,2.9,0s.5,0,.7,0v20.6l-2.2,3.4c-2.2,1.9-.9,5.5,2,5.5h8.2c4.4,0,7.9-3.6,7.9-7.9v-24.6c16.1-6.2,28-21,29.7-39,11.8-3.9,20.5-14.7,21.3-27.7.8-12.7-6.2-24.2-16.9-29.6h0ZM70.3,93.1c6.4-.5,6.9,5.6,6.9,5.6.1,1.7-.8,2.8-2,3.6-2.3,1.5-5.2,1.4-7.6.3l-4.9-2.4s1.2-6.7,7.6-7.1h0ZM260.2,135.8c4.3,11.8-4.3,22.5-15.1,22.5s-.7,0-1,0c-2-.1-3.9-.6-5.6-1.4,1.3,3.8,1.9,7.9,1.7,12.2-1,16.8-14.9,29.7-31.5,29.7s-1.3,0-2,0c-3.4-.2-6.6-.9-9.6-2.1-5.1,8.9-14.6,14.8-25.4,14.8s-1.2,0-1.8,0c-7.6-.5-14.2-3.8-19.1-8.8-5,4-11.4,6.4-18.3,6.4s-1.2,0-1.8,0c-16.1-1-28.4-14.9-27.4-31,.1-1.8.4-3.6.8-5.4-17.2-2.2-30-17.3-28.9-34.9.1-1.8.4-3.6.8-5.4,4.7-1.3,8.9-3.1,12-5.5v21s.6,10.2,7,10.2,11.6-15.9,13.5-23.5,2.3-26.7,2.3-26.7c0,0,9.9-8.7,3.1-21.4,4.2-6,11.2-9.8,19-9.8s1,0,1.4,0c5.5.3,10.4,2.5,14.1,5.9,4.2-6,11.2-9.9,19-9.9s1,0,1.4,0c7,.4,13.1,3.9,17.1,9.1,4.1-2.1,8.7-3.3,13.5-3.3s1.2,0,1.8,0c12.4.8,22.6,9.2,26.1,20.4,10.9,4.2,18.5,14.8,18.6,26.9h.1c6.3.1,12,4,14.1,10h0Z"/>
</g>
</svg>





