<?xml version="1.0" encoding="utf-8"?>
<!-- Generator: Adobe Illustrator 27.9.4, SVG Export Plug-In . SVG Version: 9.03 Build 54784)  -->
<svg version="1.1" id="Layer_1" class="svg-stroke-animate" xmlns="http://www.w3.org/2000/svg" xmlns:xlink="http://www.w3.org/1999/xlink" x="0px" y="0px"
	 viewBox="0 0 300 300" style="enable-background:new 0 0 300 300;" xml:space="preserve">
<style type="text/css">
	.st0{fill: none;
        stroke: #fad000;
        stroke-miterlimit: 10;
        stroke-width: 2px;}
        
        .svg-stroke-animate {
        opacity: 1;
        margin-top: 5%;
        width: 30%;
        stroke-dasharray: 1000;
        stroke-dashoffset: 0;
        animation: 
          dash 12s ease-in-out;
      }
      @keyframes dash {
        0% {
          opacity: 0;
          stroke-dashoffset: 0;
          stroke-dasharray:   0;
        }
        15%{
          opacity: 1;
        }
        30%{
          stroke-dashoffset: 10;
        }
        50% {
          stroke-dashoffset: 0;
          stroke-dasharray: 1000;
        }
        50.5% {opacity: 1;}
        51% {opacity: 1;}
        51.5% {opacity: 0;}
        52% {opacity: 1;}
        52.5% {opacity: 0;}
        53% {opacity: 1;}
        100% {opacity: 1;}
      }
</style>
<g>
  <path class="st0" d="M126.98,0C56.85,0,0,56.85,0,126.98s56.85,126.98,126.98,126.98,126.98-56.85,126.98-126.98S197.11,0,126.98,0ZM169.15,60.07c6.9,0,12.5,14.98,12.5,33.46s-5.6,33.46-12.5,33.46-12.5-14.98-12.5-33.46,5.6-33.46,12.5-33.46ZM84.8,60.07c6.91,0,12.5,14.98,12.5,33.46s-5.6,33.46-12.5,33.46-12.5-14.98-12.5-33.46,5.6-33.46,12.5-33.46ZM126.98,210.57c-54.55,0-98.94-44.38-98.94-98.94,0-3.79,3.07-6.86,6.86-6.86s6.86,3.07,6.86,6.86c0,46.99,38.23,85.23,85.23,85.23s85.23-38.23,85.23-85.23c0-3.79,3.07-6.86,6.86-6.86s6.86,3.07,6.86,6.86c0,54.55-44.38,98.94-98.94,98.94Z"/>
</g>
</svg>





