<?xml version="1.0" encoding="utf-8"?>
<!-- Generator: Adobe Illustrator 27.9.4, SVG Export Plug-In . SVG Version: 9.03 Build 54784)  -->
<svg version="1.1" id="Layer_1" class="svg-stroke-animate" xmlns="http://www.w3.org/2000/svg" xmlns:xlink="http://www.w3.org/1999/xlink" x="0px" y="0px"
	 viewBox="0 0 300 300" style="enable-background:new 0 0 300 300;" xml:space="preserve">
<style type="text/css">
	.st0{fill: none;
        stroke: #fad000;
        stroke-miterlimit: 10;
        stroke-width: 2px;}
        
        .svg-stroke-animate {
        opacity: 1;
        margin-top: 5%;
        width: 30%;
        stroke-dasharray: 600;
        stroke-dashoffset: 0;
        animation: 
          dash 12s ease-in-out;
      }
      @keyframes dash {
        0% {
          opacity: 0;
          stroke-dashoffset: 0;
          stroke-dasharray:   0;
        }
        15%{
          opacity: 1;
        }
        30%{
          stroke-dashoffset: 10;
        }
        50% {
          stroke-dashoffset: 0;
          stroke-dasharray: 600;
        }
        50.5% {opacity: 1;}
        51% {opacity: 1;}
        51.5% {opacity: 0;}
        52% {opacity: 1;}
        52.5% {opacity: 0;}
        53% {opacity: 1;}
        100% {opacity: 1;}
      }
</style>
<g>
	<path class="st0" d="M157.1,116.6h-43.4c-3.6,7.7-5.8,14.9-5.8,22.5c-0.2,38-0.3,76-0.5,114c0,1.2,0,3.8,0,3.8h49v-8.5
		c0-30.2-0.1-60.4,0.1-90.6c0-5.8,0.4-11.6,1.2-17.3c2.1-16,11.7-26.6,27.5-30c5.6-1.2,11.4-1.1,17.2-1.4c3.9-0.2,7.9-0.1,11.9-0.2
		V58c-19.4-0.5-38.4-1.3-57.1,7.8L157.1,116.6z"/>
	<rect x="120.5" y="43" class="st0" width="16.9" height="16.9"/>
	<rect x="120.5" y="79.7" class="st0" width="16.9" height="16.9"/>
	<rect x="85.8" y="79.7" class="st0" width="16.9" height="16.9"/>
	<rect x="120.5" y="43" class="st0" width="16.9" height="16.9"/>
	<rect x="120.5" y="79.7" class="st0" width="16.9" height="16.9"/>
	<rect x="85.8" y="79.7" class="st0" width="16.9" height="16.9"/>
</g>
</svg>





