<?xml version="1.0" encoding="utf-8"?>
<!-- Generator: Adobe Illustrator 27.9.4, SVG Export Plug-In . SVG Version: 9.03 Build 54784)  -->
<svg version="1.1" id="Layer_1" class="svg-stroke-animate" xmlns="http://www.w3.org/2000/svg" xmlns:xlink="http://www.w3.org/1999/xlink" x="0px" y="0px"
	 viewBox="0 0 300 300" style="enable-background:new 0 0 300 300;" xml:space="preserve">
<style type="text/css">
	.st0{fill: none;
        stroke: #fad000;
        stroke-miterlimit: 10;
        stroke-width: 2px;}
        
        .svg-stroke-animate {
        opacity: 1;
        margin-top: 5%;
        width: 30%;
        stroke-dasharray: 1000;
        stroke-dashoffset: 0;
        animation: 
          dash 12s ease-in-out;
      }
      @keyframes dash {
        0% {
          opacity: 0;
          stroke-dashoffset: 0;
          stroke-dasharray:   0;
        }
        15%{
          opacity: 1;
        }
        30%{
          stroke-dashoffset: 10;
        }
        50% {
          stroke-dashoffset: 0;
          stroke-dasharray: 1000;
        }
        50.5% {opacity: 1;}
        51% {opacity: 1;}
        51.5% {opacity: 0;}
        52% {opacity: 1;}
        52.5% {opacity: 0;}
        53% {opacity: 1;}
        100% {opacity: 1;}
      }
</style>
<g>
  <path class="st0" d="M119.71,0h0C53.59,0,0,53.6,0,119.71h0c0,66.11,53.6,119.71,119.71,119.71h119.71v-119.71c0-66.11-53.6-119.71-119.71-119.71ZM196.25,100.52c-2.97,6.87-5.93,13.75-8.91,20.62l.06-.02-19.3,44.8c-.71,1.64-2.32,2.7-4.1,2.7h-88.53c-1.78,0-3.39-1.06-4.1-2.7l-9.95-23.09s0,0-.01-.02c-7.37-17.16-14.79-34.29-22.19-51.43-.13-.3-.22-.61-.45-1.23.94.43,1.64.76,2.34,1.08,6.08,2.83,12.15,5.68,18.23,8.49.81.37,1.44,1.05,1.74,1.89,1.56,4.32,2.99,8.72,4.88,12.9,3.25,7.18,8.65,11.95,16.58,13.52,10.56,2.08,22.29-4.31,25.44-14.13.73-2.27.66-4.8.86-7.21.04-.52-.27-1.1-.52-1.6-1.92-3.95-3.89-7.87-5.76-11.84-.21-.45-.13-1.13.18-1.52,5.58-6.96,11.21-13.88,16.94-20.93,1.98,2.43,3.92,4.8,5.85,7.17,3.66,4.51,7.3,9.03,10.99,13.51.48.59.57,1.4.22,2.07-1.88,3.69-3.61,7.46-5.51,11.14-1.47,2.87-.94,5.76-.08,8.53,2.38,7.76,8.02,12.22,15.58,14.32,11.8,3.26,22.96-2.82,27.52-14.83,1.47-3.86,2.83-7.75,4.3-11.61.18-.47.53-.85.98-1.06,6.83-3.25,13.69-6.44,20.55-9.64.11-.05.25-.05.54-.11-1.49,3.49-2.93,6.87-4.38,10.24Z"/>
</g>
</svg>





